<mxfile host="app.diagrams.net" agent="Mozilla/5.0 (Windows NT 10.0; Win64; x64) AppleWebKit/537.36 (KHTML, like Gecko) Chrome/131.0.0.0 Safari/537.36" version="25.0.3">
  <diagram id="WI9T0HZ2pTsCkuznbFz-" name="Page-1">
    <mxGraphModel dx="2654" dy="789" grid="1" gridSize="10" guides="1" tooltips="1" connect="1" arrows="1" fold="1" page="1" pageScale="1" pageWidth="1169" pageHeight="827" math="0" shadow="0">
      <root>
        <mxCell id="0" />
        <mxCell id="1" parent="0" />
        <mxCell id="KcTwcLUW4ho0NEUBTKKM-2" value="" style="endArrow=none;dashed=1;html=1;rounded=0;strokeColor=#3399FF;" parent="1" edge="1">
          <mxGeometry width="50" height="50" relative="1" as="geometry">
            <mxPoint x="220" y="461" as="sourcePoint" />
            <mxPoint x="220" y="320" as="targetPoint" />
            <Array as="points">
              <mxPoint x="220" y="400" />
            </Array>
          </mxGeometry>
        </mxCell>
        <mxCell id="KcTwcLUW4ho0NEUBTKKM-3" value="" style="endArrow=none;dashed=1;html=1;rounded=0;strokeColor=#3399FF;" parent="1" edge="1">
          <mxGeometry width="50" height="50" relative="1" as="geometry">
            <mxPoint x="130" y="600" as="sourcePoint" />
            <mxPoint x="130" y="90" as="targetPoint" />
          </mxGeometry>
        </mxCell>
        <mxCell id="KcTwcLUW4ho0NEUBTKKM-4" value="" style="image;aspect=fixed;html=1;points=[];align=center;fontSize=12;image=img/lib/azure2/networking/Firewalls.svg;" parent="1" vertex="1">
          <mxGeometry x="44.99999999999999" y="270" width="60" height="50.7" as="geometry" />
        </mxCell>
        <mxCell id="KcTwcLUW4ho0NEUBTKKM-5" value="" style="endArrow=none;dashed=1;html=1;rounded=0;strokeColor=#1A1A1A;" parent="1" source="KcTwcLUW4ho0NEUBTKKM-32" edge="1">
          <mxGeometry width="50" height="50" relative="1" as="geometry">
            <mxPoint x="-70" y="325.35" as="sourcePoint" />
            <mxPoint x="-70" y="245" as="targetPoint" />
          </mxGeometry>
        </mxCell>
        <mxCell id="KcTwcLUW4ho0NEUBTKKM-6" value="" style="endArrow=none;dashed=1;html=1;rounded=0;strokeColor=#1A1A1A;" parent="1" edge="1">
          <mxGeometry width="50" height="50" relative="1" as="geometry">
            <mxPoint x="10" y="325.35" as="sourcePoint" />
            <mxPoint x="10" y="245.35000000000002" as="targetPoint" />
          </mxGeometry>
        </mxCell>
        <mxCell id="KcTwcLUW4ho0NEUBTKKM-7" value="" style="endArrow=none;dashed=1;html=1;rounded=0;strokeColor=#1A1A1A;" parent="1" edge="1">
          <mxGeometry width="50" height="50" relative="1" as="geometry">
            <mxPoint x="10" y="330" as="sourcePoint" />
            <mxPoint x="-70" y="330" as="targetPoint" />
          </mxGeometry>
        </mxCell>
        <mxCell id="KcTwcLUW4ho0NEUBTKKM-8" value="" style="endArrow=none;dashed=1;html=1;rounded=0;strokeColor=#1A1A1A;" parent="1" edge="1">
          <mxGeometry width="50" height="50" relative="1" as="geometry">
            <mxPoint x="10" y="240" as="sourcePoint" />
            <mxPoint x="-70" y="240" as="targetPoint" />
          </mxGeometry>
        </mxCell>
        <mxCell id="KcTwcLUW4ho0NEUBTKKM-14" value="" style="endArrow=none;dashed=1;html=1;rounded=0;strokeColor=#1A1A1A;" parent="1" edge="1">
          <mxGeometry width="50" height="50" relative="1" as="geometry">
            <mxPoint x="181" as="sourcePoint" />
            <mxPoint x="101" as="targetPoint" />
          </mxGeometry>
        </mxCell>
        <mxCell id="KcTwcLUW4ho0NEUBTKKM-15" value="" style="image;aspect=fixed;html=1;points=[];align=center;fontSize=12;image=img/lib/azure2/identity/Azure_Active_Directory.svg;" parent="1" vertex="1">
          <mxGeometry x="105" y="5.139999999999986" width="60" height="54.86" as="geometry" />
        </mxCell>
        <mxCell id="KcTwcLUW4ho0NEUBTKKM-16" value="" style="endArrow=none;dashed=1;html=1;rounded=0;strokeColor=#1A1A1A;" parent="1" edge="1">
          <mxGeometry width="50" height="50" relative="1" as="geometry">
            <mxPoint x="-71.8" y="473.35" as="sourcePoint" />
            <mxPoint x="-71.8" y="393" as="targetPoint" />
          </mxGeometry>
        </mxCell>
        <mxCell id="KcTwcLUW4ho0NEUBTKKM-17" value="" style="endArrow=none;dashed=1;html=1;rounded=0;strokeColor=#1A1A1A;" parent="1" edge="1">
          <mxGeometry width="50" height="50" relative="1" as="geometry">
            <mxPoint x="8.2" y="473.35" as="sourcePoint" />
            <mxPoint x="8.2" y="393.35" as="targetPoint" />
          </mxGeometry>
        </mxCell>
        <mxCell id="KcTwcLUW4ho0NEUBTKKM-18" value="" style="endArrow=none;dashed=1;html=1;rounded=0;strokeColor=#1A1A1A;" parent="1" edge="1">
          <mxGeometry width="50" height="50" relative="1" as="geometry">
            <mxPoint x="8.2" y="478" as="sourcePoint" />
            <mxPoint x="-71.8" y="478" as="targetPoint" />
          </mxGeometry>
        </mxCell>
        <mxCell id="KcTwcLUW4ho0NEUBTKKM-19" value="" style="endArrow=none;dashed=1;html=1;rounded=0;strokeColor=#1A1A1A;" parent="1" edge="1">
          <mxGeometry width="50" height="50" relative="1" as="geometry">
            <mxPoint x="8.2" y="388" as="sourcePoint" />
            <mxPoint x="-71.8" y="388" as="targetPoint" />
          </mxGeometry>
        </mxCell>
        <mxCell id="KcTwcLUW4ho0NEUBTKKM-20" value="" style="image;sketch=0;aspect=fixed;html=1;points=[];align=center;fontSize=12;image=img/lib/mscae/VPN_Gateway.svg;" parent="1" vertex="1">
          <mxGeometry x="-53.8" y="418" width="45" height="50" as="geometry" />
        </mxCell>
        <mxCell id="KcTwcLUW4ho0NEUBTKKM-21" value="" style="endArrow=none;dashed=1;html=1;rounded=0;strokeColor=#3399FF;" parent="1" edge="1">
          <mxGeometry width="50" height="50" relative="1" as="geometry">
            <mxPoint x="130" y="600" as="sourcePoint" />
            <mxPoint x="-107.5" y="600" as="targetPoint" />
          </mxGeometry>
        </mxCell>
        <mxCell id="KcTwcLUW4ho0NEUBTKKM-22" value="" style="endArrow=none;dashed=1;html=1;rounded=0;strokeColor=#3399FF;" parent="1" source="KcTwcLUW4ho0NEUBTKKM-105" edge="1">
          <mxGeometry width="50" height="50" relative="1" as="geometry">
            <mxPoint x="130" y="90" as="sourcePoint" />
            <mxPoint x="-100" y="90" as="targetPoint" />
          </mxGeometry>
        </mxCell>
        <mxCell id="KcTwcLUW4ho0NEUBTKKM-27" value="" style="endArrow=none;dashed=1;html=1;rounded=0;strokeColor=#1A1A1A;" parent="1" edge="1">
          <mxGeometry width="50" height="50" relative="1" as="geometry">
            <mxPoint x="-65.82249999999976" y="480" as="sourcePoint" />
            <mxPoint x="-68" y="485" as="targetPoint" />
          </mxGeometry>
        </mxCell>
        <mxCell id="KcTwcLUW4ho0NEUBTKKM-28" value="" style="endArrow=none;dashed=1;html=1;rounded=0;strokeColor=#1A1A1A;" parent="1" edge="1">
          <mxGeometry width="50" height="50" relative="1" as="geometry">
            <mxPoint x="110" y="330" as="sourcePoint" />
            <mxPoint x="110" y="240.7" as="targetPoint" />
          </mxGeometry>
        </mxCell>
        <mxCell id="KcTwcLUW4ho0NEUBTKKM-31" value="" style="shape=image;verticalLabelPosition=bottom;labelBackgroundColor=#ffffff;verticalAlign=top;aspect=fixed;imageAspect=0;image=data:image/svg+xml,PHN2ZyB4bWxuczpjYz0iaHR0cDovL2NyZWF0aXZlY29tbW9ucy5vcmcvbnMjIiB4bWxuczpkYz0iaHR0cDovL3B1cmwub3JnL2RjL2VsZW1lbnRzLzEuMS8iIHhtbG5zOmlua3NjYXBlPSJodHRwOi8vd3d3Lmlua3NjYXBlLm9yZy9uYW1lc3BhY2VzL2lua3NjYXBlIiB4bWxuczpyZGY9Imh0dHA6Ly93d3cudzMub3JnLzE5OTkvMDIvMjItcmRmLXN5bnRheC1ucyMiIHhtbG5zOnNvZGlwb2RpPSJodHRwOi8vc29kaXBvZGkuc291cmNlZm9yZ2UubmV0L0RURC9zb2RpcG9kaS0wLmR0ZCIgeG1sbnM6c3ZnPSJodHRwOi8vd3d3LnczLm9yZy8yMDAwL3N2ZyIgeG1sbnM9Imh0dHA6Ly93d3cudzMub3JnLzIwMDAvc3ZnIiB4bWxuczp4bGluaz0iaHR0cDovL3d3dy53My5vcmcvMTk5OS94bGluayIgdmVyc2lvbj0iMS4xIiBpZD0ic3ZnMTUzNDg0IiBpbmtzY2FwZTp2ZXJzaW9uPSIwLjkyLjMgKDI0MDU1NDYsIDIwMTgtMDMtMTEpIiBzb2RpcG9kaTpkb2NuYW1lPSJleHByZXNzX3JvdXRlLnN2ZyIgeD0iMHB4IiB5PSIwcHgiIHZpZXdCb3g9IjAgMCA0MS4xNCAyNS4xNCIgc3R5bGU9ImVuYWJsZS1iYWNrZ3JvdW5kOm5ldyAwIDAgNDEuMTQgMjUuMTQ7IiB4bWw6c3BhY2U9InByZXNlcnZlIj4mI3hhOzxzb2RpcG9kaTpuYW1lZHZpZXcgYm9yZGVyY29sb3I9IiM2NjY2NjYiIGJvcmRlcm9wYWNpdHk9IjEiIGZpdC1tYXJnaW4tYm90dG9tPSIwIiBmaXQtbWFyZ2luLWxlZnQ9IjAiIGZpdC1tYXJnaW4tcmlnaHQ9IjAiIGZpdC1tYXJnaW4tdG9wPSIwIiBncmlkdG9sZXJhbmNlPSIxMCIgZ3VpZGV0b2xlcmFuY2U9IjEwIiBpZD0ibmFtZWR2aWV3MTUzNDg2IiBpbmtzY2FwZTpjdXJyZW50LWxheWVyPSJzdmcxNTM0ODQiIGlua3NjYXBlOmN4PSIyNy40MjI4NzEiIGlua3NjYXBlOmN5PSIxNi43NjMwMjgiIGlua3NjYXBlOnBhZ2VvcGFjaXR5PSIwIiBpbmtzY2FwZTpwYWdlc2hhZG93PSIyIiBpbmtzY2FwZTp3aW5kb3ctaGVpZ2h0PSIxMDE3IiBpbmtzY2FwZTp3aW5kb3ctbWF4aW1pemVkPSIxIiBpbmtzY2FwZTp3aW5kb3ctd2lkdGg9IjE5MjAiIGlua3NjYXBlOndpbmRvdy14PSItOCIgaW5rc2NhcGU6d2luZG93LXk9Ii04IiBpbmtzY2FwZTp6b29tPSIyNS44Njk5NDciIG9iamVjdHRvbGVyYW5jZT0iMTAiIHBhZ2Vjb2xvcj0iI2ZmZmZmZiIgc2hvd2dyaWQ9ImZhbHNlIj4mI3hhOwk8L3NvZGlwb2RpOm5hbWVkdmlldz4mI3hhOzxnIGlkPSJnMTUzNDgyIiB0cmFuc2Zvcm09InRyYW5zbGF0ZSgtNC4yODYyMDEzZS01LDAuMDAxMykiPiYjeGE7CTx0aXRsZSBpZD0idGl0bGUxNTM0NDIiPlBhZ2UtMTwvdGl0bGU+JiN4YTsJPGcgaWQ9Imdyb3VwOTQ3OC0xIj4mI3hhOwkJPHRpdGxlIGlkPSJ0aXRsZTE1MzQ0NCI+RXhwcmVzcyBSb3V0ZTwvdGl0bGU+JiN4YTsJCTxnIGlkPSJzaGFwZTk0NzktMiI+JiN4YTsJCQk8dGl0bGUgaWQ9InRpdGxlMTUzNDQ2Ij5TaGVldC45NDc5PC90aXRsZT4mI3hhOwkJCTxwYXRoIGlkPSJwYXRoMTUzNDQ4IiBpbmtzY2FwZTpjb25uZWN0b3ItY3VydmF0dXJlPSIwIiBzdHlsZT0iZmlsbDojNjgyMTdBOyIgZD0iTTM2LjQ5LDE1Ljg5Yy0wLjY1LDAtMS4zMSwwLjE2LTEuOSwwLjQ2ICAgICBsLTkuOC05LjgxYzAuMjYtMC41NSwwLjQtMS4yLDAuNC0xLjkxYzAtMi41Ni0yLjA3LTQuNjMtNC42LTQuNjNjLTIuNTcsMC00LjY0LDIuMDctNC42NCw0LjYzYzAsMC43MSwwLjIxLDEuMzYsMC40NiwxLjkxICAgICBMNi41NiwxNi40Yy0wLjU5LTAuMzEtMS4yNi0wLjQ2LTEuOTYtMC40NkMyLjA3LDE1Ljk0LDAsMTgsMCwyMC41MmMwLDIuNTYsMi4wNyw0LjYyLDQuNiw0LjYyYzIuMDIsMCwzLjY4LTEuMjUsNC4zNC0zLjAxSDMyLjIgICAgIGMwLjY3LDEuNzEsMi4zMywyLjk2LDQuMjksMi45NmMyLjU5LDAsNC42NC0yLjA1LDQuNjQtNC42M0M0MS4xMywxNy45NiwzOS4wOCwxNS44OSwzNi40OSwxNS44OXogTTQuNiwyMi4wMiAgICAgYy0wLjgxLDAtMS41MS0wLjY1LTEuNTEtMS41YzAtMC44LDAuNy0xLjUxLDEuNTEtMS41MWMwLjg1LDAsMS41MiwwLjcxLDEuNTIsMS41MUM2LjEyLDIxLjM3LDUuNDUsMjIuMDIsNC42LDIyLjAyeiBNMjAuNTksMy4xMyAgICAgYzAuODIsMCwxLjUyLDAuNjUsMS41MiwxLjVjMCwwLjgtMC43LDEuNS0xLjUyLDEuNWMtMC44NSwwLTEuNTEtMC43LTEuNTEtMS41QzE5LjA4LDMuNzgsMTkuNzQsMy4xMywyMC41OSwzLjEzeiBNMzIuMTYsMTguOTYgICAgIEg4Ljk0Yy0wLjA1LTAuMTEtMC4xLTAuMjYtMC4xNi0wLjM1bDkuOTEtOS44MWMwLjU1LDAuMjYsMS4yLDAuNDEsMS45LDAuNDFjMC43MiwwLDEuMzItMC4xNSwxLjkzLTAuNDFsOS44Myw5Ljc1ICAgICBDMzIuMjYsMTguNywzMi4yLDE4LjgxLDMyLjE2LDE4Ljk2eiBNMzYuNDksMjEuOThjLTAuOCwwLTEuNDYtMC42Ni0xLjQ2LTEuNTJjMC0wLjgsMC42Ni0xLjQ1LDEuNDYtMS40NSAgICAgYzAuODcsMCwxLjUyLDAuNjUsMS41MiwxLjQ1QzM4LjAxLDIxLjMyLDM3LjM2LDIxLjk4LDM2LjQ5LDIxLjk4eiIvPiYjeGE7CQk8L2c+JiN4YTsJCTxnIGlkPSJzaGFwZTk0ODAtNCIgdHJhbnNmb3JtPSJ0cmFuc2xhdGUoMTUuODA0MywtMTUuNjAxMykiPiYjeGE7CQkJPHRpdGxlIGlkPSJ0aXRsZTE1MzQ1MSI+U2hlZXQuOTQ4MDwvdGl0bGU+JiN4YTsJCQk8cGF0aCBpZD0icGF0aDE1MzQ1MyIgaW5rc2NhcGU6Y29ubmVjdG9yLWN1cnZhdHVyZT0iMCIgc3R5bGU9ImZpbGw6IzdGQkEwMDsiIGQ9Ik0wLDIwLjM3YzAtMi42MywyLjE0LTQuNzcsNC43Ni00Ljc3ICAgICBjMi42NCwwLDQuNzcsMi4xNCw0Ljc3LDQuNzdjMCwyLjY0LTIuMTMsNC43Ny00Ljc3LDQuNzdDMi4xNCwyNS4xNCwwLDIzLjAxLDAsMjAuMzd6Ii8+JiN4YTsJCTwvZz4mI3hhOwkJPGcgaWQ9InNoYXBlOTQ4MS02Ij4mI3hhOwkJCTx0aXRsZSBpZD0idGl0bGUxNTM0NTYiPlNoZWV0Ljk0ODE8L3RpdGxlPiYjeGE7CQkJPHBhdGggaWQ9InBhdGgxNTM0NTgiIGlua3NjYXBlOmNvbm5lY3Rvci1jdXJ2YXR1cmU9IjAiIHN0eWxlPSJmaWxsOiM3RkJBMDA7IiBkPSJNMCwyMC40OGMwLTIuNTgsMi4xNC00LjY2LDQuNzYtNC42NiAgICAgYzIuNjQsMCw0Ljc3LDIuMDgsNC43Nyw0LjY2YzAsMi41Ny0yLjEzLDQuNjYtNC43Nyw0LjY2QzIuMTQsMjUuMTQsMCwyMy4wNSwwLDIwLjQ4eiIvPiYjeGE7CQk8L2c+JiN4YTsJCTxnIGlkPSJzaGFwZTk0ODItOCIgdHJhbnNmb3JtPSJ0cmFuc2xhdGUoMzEuNjA4NikiPiYjeGE7CQkJPHRpdGxlIGlkPSJ0aXRsZTE1MzQ2MSI+U2hlZXQuOTQ4MjwvdGl0bGU+JiN4YTsJCQk8cGF0aCBpZD0icGF0aDE1MzQ2MyIgaW5rc2NhcGU6Y29ubmVjdG9yLWN1cnZhdHVyZT0iMCIgc3R5bGU9ImZpbGw6IzdGQkEwMDsiIGQ9Ik0wLDIwLjQ4YzAtMi41OCwyLjE0LTQuNjYsNC43Ni00LjY2ICAgICBjMi42NCwwLDQuNzcsMi4wOCw0Ljc3LDQuNjZjMCwyLjU3LTIuMTMsNC42Ni00Ljc3LDQuNjZDMi4xNCwyNS4xNCwwLDIzLjA1LDAsMjAuNDh6Ii8+JiN4YTsJCTwvZz4mI3hhOwkJPGcgaWQ9InNoYXBlOTQ4My0xMCIgdHJhbnNmb3JtPSJ0cmFuc2xhdGUoMTguNzI3LC0xOC41MjY1KSI+JiN4YTsJCQk8dGl0bGUgaWQ9InRpdGxlMTUzNDY2Ij5TaGVldC45NDgzPC90aXRsZT4mI3hhOwkJCTxwYXRoIGlkPSJwYXRoMTUzNDY4IiBpbmtzY2FwZTpjb25uZWN0b3ItY3VydmF0dXJlPSIwIiBzdHlsZT0iZmlsbDojRkZGRkZGOyIgZD0iTTAsMjMuMjljMC0xLjAxLDAuODMtMS44NCwxLjg0LTEuODQgICAgIGMxLjAzLDAsMS44NCwwLjgzLDEuODQsMS44NGMwLDEuMDMtMC44MSwxLjg1LTEuODQsMS44NUMwLjgzLDI1LjE0LDAsMjQuMzIsMCwyMy4yOXoiLz4mI3hhOwkJPC9nPiYjeGE7CQk8ZyBpZD0ic2hhcGU5NDg0LTEyIiB0cmFuc2Zvcm09InRyYW5zbGF0ZSgyLjgxNDQ2LC0yLjgxNjg5KSI+JiN4YTsJCQk8dGl0bGUgaWQ9InRpdGxlMTUzNDcxIj5TaGVldC45NDg0PC90aXRsZT4mI3hhOwkJCTxwYXRoIGlkPSJwYXRoMTUzNDczIiBpbmtzY2FwZTpjb25uZWN0b3ItY3VydmF0dXJlPSIwIiBzdHlsZT0iZmlsbDojRkZGRkZGOyIgZD0iTTAsMjMuMjljMC0xLjAxLDAuODMtMS44NCwxLjg0LTEuODQgICAgIGMxLjAzLDAsMS44NCwwLjgzLDEuODQsMS44NGMwLDEuMDMtMC44MSwxLjg1LTEuODQsMS44NUMwLjgzLDI1LjE0LDAsMjQuMzIsMCwyMy4yOXoiLz4mI3hhOwkJPC9nPiYjeGE7CQk8ZyBpZD0ic2hhcGU5NDg1LTE0IiB0cmFuc2Zvcm09InRyYW5zbGF0ZSgzNC41MzEzLC0yLjgxNjg5KSI+JiN4YTsJCQk8dGl0bGUgaWQ9InRpdGxlMTUzNDc2Ij5TaGVldC45NDg1PC90aXRsZT4mI3hhOwkJCTxwYXRoIGlkPSJwYXRoMTUzNDc4IiBpbmtzY2FwZTpjb25uZWN0b3ItY3VydmF0dXJlPSIwIiBzdHlsZT0iZmlsbDojRkZGRkZGOyIgZD0iTTAsMjMuMjljMC0xLjAxLDAuODMtMS44NCwxLjg0LTEuODQgICAgIGMxLjAzLDAsMS44NCwwLjgzLDEuODQsMS44NGMwLDEuMDMtMC44MSwxLjg1LTEuODQsMS44NUMwLjgzLDI1LjE0LDAsMjQuMzIsMCwyMy4yOXoiLz4mI3hhOwkJPC9nPiYjeGE7CTwvZz4mI3hhOzwvZz4mI3hhOzwvc3ZnPg==;" parent="1" vertex="1">
          <mxGeometry x="-60.000000000000114" y="280" width="57.4" height="35" as="geometry" />
        </mxCell>
        <mxCell id="KcTwcLUW4ho0NEUBTKKM-35" value="" style="endArrow=none;dashed=1;html=1;rounded=0;strokeColor=#1A1A1A;" parent="1" target="KcTwcLUW4ho0NEUBTKKM-32" edge="1">
          <mxGeometry width="50" height="50" relative="1" as="geometry">
            <mxPoint x="-70" y="325.35" as="sourcePoint" />
            <mxPoint x="-70" y="245" as="targetPoint" />
          </mxGeometry>
        </mxCell>
        <mxCell id="KcTwcLUW4ho0NEUBTKKM-32" value="" style="image;aspect=fixed;html=1;points=[];align=center;fontSize=12;image=img/lib/azure2/networking/Network_Security_Groups.svg;" parent="1" vertex="1">
          <mxGeometry x="-80.90999999999997" y="240" width="24.71" height="30" as="geometry" />
        </mxCell>
        <mxCell id="KcTwcLUW4ho0NEUBTKKM-37" value="" style="image;aspect=fixed;html=1;points=[];align=center;fontSize=12;image=img/lib/azure2/networking/Network_Security_Groups.svg;" parent="1" vertex="1">
          <mxGeometry x="-86.00999999999998" y="388" width="24.71" height="30" as="geometry" />
        </mxCell>
        <mxCell id="KcTwcLUW4ho0NEUBTKKM-39" value="" style="endArrow=none;dashed=1;html=1;rounded=0;strokeColor=#1A1A1A;" parent="1" edge="1">
          <mxGeometry width="50" height="50" relative="1" as="geometry">
            <mxPoint x="32" y="330" as="sourcePoint" />
            <mxPoint x="31.993571428571535" y="244.64999999999998" as="targetPoint" />
          </mxGeometry>
        </mxCell>
        <mxCell id="KcTwcLUW4ho0NEUBTKKM-46" value="" style="endArrow=none;dashed=1;html=1;rounded=0;strokeColor=#1A1A1A;" parent="1" edge="1">
          <mxGeometry width="50" height="50" relative="1" as="geometry">
            <mxPoint x="121" y="600" as="sourcePoint" />
            <mxPoint x="120" y="420" as="targetPoint" />
          </mxGeometry>
        </mxCell>
        <mxCell id="KcTwcLUW4ho0NEUBTKKM-47" value="" style="endArrow=none;dashed=1;html=1;rounded=0;strokeColor=#1A1A1A;" parent="1" edge="1">
          <mxGeometry width="50" height="50" relative="1" as="geometry">
            <mxPoint x="120" y="422.35" as="sourcePoint" />
            <mxPoint x="40" y="422.35" as="targetPoint" />
          </mxGeometry>
        </mxCell>
        <mxCell id="KcTwcLUW4ho0NEUBTKKM-48" value="" style="endArrow=none;dashed=1;html=1;rounded=0;strokeColor=#1A1A1A;entryX=0;entryY=0;entryDx=0;entryDy=0;" parent="1" target="KcTwcLUW4ho0NEUBTKKM-72" edge="1">
          <mxGeometry width="50" height="50" relative="1" as="geometry">
            <mxPoint x="40" y="595" as="sourcePoint" />
            <mxPoint x="39.210000000000036" y="354" as="targetPoint" />
          </mxGeometry>
        </mxCell>
        <mxCell id="KcTwcLUW4ho0NEUBTKKM-50" value="" style="image;aspect=fixed;html=1;points=[];align=center;fontSize=12;image=img/lib/azure2/management_governance/Monitor.svg;" parent="1" vertex="1">
          <mxGeometry x="152.46" y="460" width="50" height="50" as="geometry" />
        </mxCell>
        <mxCell id="KcTwcLUW4ho0NEUBTKKM-57" value="VPN Gateway" style="text;strokeColor=none;align=center;fillColor=none;html=1;verticalAlign=middle;whiteSpace=wrap;rounded=0;fontSize=9;" parent="1" vertex="1">
          <mxGeometry x="-75.00000000000004" y="397" width="90" height="30" as="geometry" />
        </mxCell>
        <mxCell id="KcTwcLUW4ho0NEUBTKKM-58" value="Azure Firewall" style="text;strokeColor=none;align=center;fillColor=none;html=1;verticalAlign=middle;whiteSpace=wrap;rounded=0;fontSize=9;" parent="1" vertex="1">
          <mxGeometry x="29.999999999999993" y="239.99999999999997" width="90" height="30" as="geometry" />
        </mxCell>
        <mxCell id="KcTwcLUW4ho0NEUBTKKM-60" value="Express Route" style="text;strokeColor=none;align=center;fillColor=none;html=1;verticalAlign=middle;whiteSpace=wrap;rounded=0;fontSize=9;" parent="1" vertex="1">
          <mxGeometry x="-73.70000000000005" y="250.34999999999997" width="90" height="30" as="geometry" />
        </mxCell>
        <mxCell id="KcTwcLUW4ho0NEUBTKKM-64" value="" style="image;sketch=0;aspect=fixed;html=1;points=[];align=center;fontSize=12;image=img/lib/mscae/Application_Insights.svg;" parent="1" vertex="1">
          <mxGeometry x="69" y="454.7" width="32" height="50" as="geometry" />
        </mxCell>
        <mxCell id="KcTwcLUW4ho0NEUBTKKM-65" value="" style="image;aspect=fixed;html=1;points=[];align=center;fontSize=12;image=img/lib/azure2/management_governance/Log_Analytics_Workspaces.svg;" parent="1" vertex="1">
          <mxGeometry x="60" y="540" width="50" height="50" as="geometry" />
        </mxCell>
        <mxCell id="KcTwcLUW4ho0NEUBTKKM-66" value="" style="endArrow=none;dashed=1;html=1;rounded=0;strokeColor=#1A1A1A;" parent="1" edge="1">
          <mxGeometry width="50" height="50" relative="1" as="geometry">
            <mxPoint x="120" y="595" as="sourcePoint" />
            <mxPoint x="40" y="595" as="targetPoint" />
          </mxGeometry>
        </mxCell>
        <mxCell id="KcTwcLUW4ho0NEUBTKKM-72" value="App Insights" style="text;strokeColor=none;align=center;fillColor=none;html=1;verticalAlign=middle;whiteSpace=wrap;rounded=0;fontSize=9;" parent="1" vertex="1">
          <mxGeometry x="40" y="424.70000000000005" width="90" height="30" as="geometry" />
        </mxCell>
        <mxCell id="KcTwcLUW4ho0NEUBTKKM-73" value="Log Analytics" style="text;strokeColor=none;align=center;fillColor=none;html=1;verticalAlign=middle;whiteSpace=wrap;rounded=0;fontSize=9;" parent="1" vertex="1">
          <mxGeometry x="40" y="510" width="90" height="30" as="geometry" />
        </mxCell>
        <mxCell id="KcTwcLUW4ho0NEUBTKKM-74" value="&lt;b&gt;&lt;font style=&quot;font-size: 12px;&quot;&gt;Hub Virtual Network&lt;/font&gt;&lt;/b&gt;" style="text;strokeColor=none;align=center;fillColor=none;html=1;verticalAlign=middle;whiteSpace=wrap;rounded=0;fontSize=9;" parent="1" vertex="1">
          <mxGeometry x="-48.19" y="60" width="157.4" height="30" as="geometry" />
        </mxCell>
        <mxCell id="KcTwcLUW4ho0NEUBTKKM-75" value="" style="image;aspect=fixed;html=1;points=[];align=center;fontSize=12;image=img/lib/azure2/networking/DNS_Zones.svg;" parent="1" vertex="1">
          <mxGeometry x="-7.5" y="630" width="47.5" height="47.5" as="geometry" />
        </mxCell>
        <mxCell id="KcTwcLUW4ho0NEUBTKKM-77" value="" style="endArrow=classic;html=1;rounded=0;dashed=1;strokeColor=#4D4D4D;" parent="1" edge="1">
          <mxGeometry width="50" height="50" relative="1" as="geometry">
            <mxPoint x="15" y="600" as="sourcePoint" />
            <mxPoint x="15" y="630" as="targetPoint" />
          </mxGeometry>
        </mxCell>
        <mxCell id="KcTwcLUW4ho0NEUBTKKM-78" value="&lt;font style=&quot;font-size: 10px;&quot;&gt;Private DNS Zone&lt;/font&gt;&amp;nbsp;" style="text;strokeColor=none;align=center;fillColor=none;html=1;verticalAlign=middle;whiteSpace=wrap;rounded=0;fontSize=9;" parent="1" vertex="1">
          <mxGeometry x="-28.75" y="690" width="90" height="30" as="geometry" />
        </mxCell>
        <mxCell id="KcTwcLUW4ho0NEUBTKKM-79" value="" style="endArrow=none;dashed=1;html=1;rounded=0;strokeColor=#3399FF;" parent="1" edge="1">
          <mxGeometry width="50" height="50" relative="1" as="geometry">
            <mxPoint x="-100" y="610" as="sourcePoint" />
            <mxPoint x="-100" y="90" as="targetPoint" />
          </mxGeometry>
        </mxCell>
        <mxCell id="KcTwcLUW4ho0NEUBTKKM-81" value="" style="endArrow=none;dashed=1;html=1;rounded=0;strokeColor=#3399FF;" parent="1" edge="1">
          <mxGeometry width="50" height="50" relative="1" as="geometry">
            <mxPoint x="540" y="460.7" as="sourcePoint" />
            <mxPoint x="540" y="320.7" as="targetPoint" />
          </mxGeometry>
        </mxCell>
        <mxCell id="KcTwcLUW4ho0NEUBTKKM-83" value="" style="endArrow=none;dashed=1;html=1;rounded=0;strokeColor=#3399FF;" parent="1" edge="1">
          <mxGeometry width="50" height="50" relative="1" as="geometry">
            <mxPoint x="540" y="460" as="sourcePoint" />
            <mxPoint x="220" y="460" as="targetPoint" />
          </mxGeometry>
        </mxCell>
        <mxCell id="KcTwcLUW4ho0NEUBTKKM-84" value="" style="image;aspect=fixed;html=1;points=[];align=center;fontSize=12;image=img/lib/azure2/networking/Private_Endpoint.svg;" parent="1" vertex="1">
          <mxGeometry x="230" y="374" width="43.64" height="40" as="geometry" />
        </mxCell>
        <mxCell id="KcTwcLUW4ho0NEUBTKKM-85" value="" style="image;aspect=fixed;html=1;points=[];align=center;fontSize=12;image=img/lib/azure2/networking/Private_Endpoint.svg;" parent="1" vertex="1">
          <mxGeometry x="306.3" y="374" width="43.64" height="40" as="geometry" />
        </mxCell>
        <mxCell id="KcTwcLUW4ho0NEUBTKKM-86" value="Private Endpoint Function 1" style="text;strokeColor=none;align=center;fillColor=none;html=1;verticalAlign=middle;whiteSpace=wrap;rounded=0;fontSize=9;" parent="1" vertex="1">
          <mxGeometry x="295.5" y="426.5" width="70" height="25.3" as="geometry" />
        </mxCell>
        <mxCell id="KcTwcLUW4ho0NEUBTKKM-87" value="Private Enpoint&amp;nbsp; Storage" style="text;strokeColor=none;align=center;fillColor=none;html=1;verticalAlign=middle;whiteSpace=wrap;rounded=0;fontSize=9;" parent="1" vertex="1">
          <mxGeometry x="216.3" y="425" width="90" height="30" as="geometry" />
        </mxCell>
        <mxCell id="KcTwcLUW4ho0NEUBTKKM-92" value="" style="verticalLabelPosition=bottom;html=1;verticalAlign=top;align=center;strokeColor=none;fillColor=#00BEF2;shape=mxgraph.azure.storage;pointerEvents=1;" parent="1" vertex="1">
          <mxGeometry x="224.32" y="523.14" width="55" height="37.56" as="geometry" />
        </mxCell>
        <mxCell id="KcTwcLUW4ho0NEUBTKKM-93" value="" style="image;aspect=fixed;html=1;points=[];align=center;fontSize=12;image=img/lib/azure2/compute/Function_Apps.svg;" parent="1" vertex="1">
          <mxGeometry x="315.5" y="523.14" width="50" height="44.12" as="geometry" />
        </mxCell>
        <mxCell id="KcTwcLUW4ho0NEUBTKKM-94" value="" style="endArrow=classic;html=1;rounded=0;entryX=0.333;entryY=0.02;entryDx=0;entryDy=0;entryPerimeter=0;dashed=1;strokeColor=#4D4D4D;" parent="1" edge="1">
          <mxGeometry width="50" height="50" relative="1" as="geometry">
            <mxPoint x="249.02000000000004" y="463.12" as="sourcePoint" />
            <mxPoint x="249.00000000000006" y="523.14" as="targetPoint" />
          </mxGeometry>
        </mxCell>
        <mxCell id="KcTwcLUW4ho0NEUBTKKM-95" value="" style="endArrow=classic;html=1;rounded=0;dashed=1;strokeColor=#4D4D4D;" parent="1" edge="1">
          <mxGeometry width="50" height="50" relative="1" as="geometry">
            <mxPoint x="330" y="463.14" as="sourcePoint" />
            <mxPoint x="330" y="523.14" as="targetPoint" />
          </mxGeometry>
        </mxCell>
        <mxCell id="KcTwcLUW4ho0NEUBTKKM-96" value="" style="endArrow=classic;html=1;rounded=0;dashed=1;strokeColor=#4D4D4D;startArrow=classic;startFill=1;" parent="1" edge="1">
          <mxGeometry width="50" height="50" relative="1" as="geometry">
            <mxPoint x="130" y="399.35" as="sourcePoint" />
            <mxPoint x="220" y="400" as="targetPoint" />
          </mxGeometry>
        </mxCell>
        <mxCell id="KcTwcLUW4ho0NEUBTKKM-103" value="VNet Peering" style="text;strokeColor=none;align=center;fillColor=none;html=1;verticalAlign=middle;whiteSpace=wrap;rounded=0;fontSize=9;" parent="1" vertex="1">
          <mxGeometry x="132.46" y="364.71999999999997" width="90" height="30" as="geometry" />
        </mxCell>
        <mxCell id="KcTwcLUW4ho0NEUBTKKM-104" value="" style="endArrow=none;dashed=1;html=1;rounded=0;strokeColor=#3399FF;" parent="1" target="KcTwcLUW4ho0NEUBTKKM-105" edge="1">
          <mxGeometry width="50" height="50" relative="1" as="geometry">
            <mxPoint x="130" y="90" as="sourcePoint" />
            <mxPoint x="-100" y="90" as="targetPoint" />
          </mxGeometry>
        </mxCell>
        <mxCell id="KcTwcLUW4ho0NEUBTKKM-105" value="" style="verticalLabelPosition=bottom;html=1;verticalAlign=top;align=center;strokeColor=none;fillColor=#00BEF2;shape=mxgraph.azure.virtual_network;pointerEvents=1;" parent="1" vertex="1">
          <mxGeometry x="-106" y="79.25" width="36" height="20.75" as="geometry" />
        </mxCell>
        <mxCell id="KcTwcLUW4ho0NEUBTKKM-107" value="" style="endArrow=none;dashed=1;html=1;rounded=0;strokeColor=#3399FF;" parent="1" edge="1">
          <mxGeometry width="50" height="50" relative="1" as="geometry">
            <mxPoint x="540" y="321" as="sourcePoint" />
            <mxPoint x="286" y="321.03333333333336" as="targetPoint" />
          </mxGeometry>
        </mxCell>
        <mxCell id="KcTwcLUW4ho0NEUBTKKM-106" value="" style="verticalLabelPosition=bottom;html=1;verticalAlign=top;align=center;strokeColor=none;fillColor=#00BEF2;shape=mxgraph.azure.virtual_network;pointerEvents=1;" parent="1" vertex="1">
          <mxGeometry x="250" y="310" width="36" height="20.75" as="geometry" />
        </mxCell>
        <mxCell id="KcTwcLUW4ho0NEUBTKKM-108" value="" style="endArrow=classic;html=1;rounded=0;dashed=1;strokeColor=#4D4D4D;startArrow=classic;startFill=1;" parent="1" edge="1">
          <mxGeometry width="50" height="50" relative="1" as="geometry">
            <mxPoint x="279.32" y="541.7700000000001" as="sourcePoint" />
            <mxPoint x="319.32" y="541.4200000000001" as="targetPoint" />
          </mxGeometry>
        </mxCell>
        <mxCell id="KcTwcLUW4ho0NEUBTKKM-109" value="" style="endArrow=none;dashed=1;html=1;rounded=0;strokeColor=#3399FF;" parent="1" edge="1">
          <mxGeometry width="50" height="50" relative="1" as="geometry">
            <mxPoint x="-400" y="430.7" as="sourcePoint" />
            <mxPoint x="-400" y="290.7" as="targetPoint" />
          </mxGeometry>
        </mxCell>
        <mxCell id="KcTwcLUW4ho0NEUBTKKM-110" value="" style="endArrow=none;dashed=1;html=1;rounded=0;strokeColor=#3399FF;" parent="1" edge="1">
          <mxGeometry width="50" height="50" relative="1" as="geometry">
            <mxPoint x="-220" y="430.7" as="sourcePoint" />
            <mxPoint x="-220" y="290.7" as="targetPoint" />
          </mxGeometry>
        </mxCell>
        <mxCell id="KcTwcLUW4ho0NEUBTKKM-111" value="" style="endArrow=none;dashed=1;html=1;rounded=0;strokeColor=#3399FF;" parent="1" edge="1">
          <mxGeometry width="50" height="50" relative="1" as="geometry">
            <mxPoint x="-220" y="430.7" as="sourcePoint" />
            <mxPoint x="-400" y="430.7" as="targetPoint" />
          </mxGeometry>
        </mxCell>
        <mxCell id="KcTwcLUW4ho0NEUBTKKM-112" value="&lt;b&gt;&lt;font style=&quot;font-size: 12px;&quot;&gt;OnPremises&amp;nbsp; Network&amp;nbsp;&lt;/font&gt;&lt;/b&gt;" style="text;strokeColor=none;align=center;fillColor=none;html=1;verticalAlign=middle;whiteSpace=wrap;rounded=0;fontSize=9;" parent="1" vertex="1">
          <mxGeometry x="-390" y="449" width="150" height="30" as="geometry" />
        </mxCell>
        <mxCell id="KcTwcLUW4ho0NEUBTKKM-113" value="" style="endArrow=none;dashed=1;html=1;rounded=0;strokeColor=#3399FF;" parent="1" edge="1">
          <mxGeometry width="50" height="50" relative="1" as="geometry">
            <mxPoint x="-220" y="290.7" as="sourcePoint" />
            <mxPoint x="-400" y="291" as="targetPoint" />
          </mxGeometry>
        </mxCell>
        <mxCell id="KcTwcLUW4ho0NEUBTKKM-114" value="" style="shape=image;verticalLabelPosition=bottom;labelBackgroundColor=#ffffff;verticalAlign=top;aspect=fixed;imageAspect=0;image=data:image/svg+xml,PHN2ZyB4bWxuczpjYz0iaHR0cDovL2NyZWF0aXZlY29tbW9ucy5vcmcvbnMjIiB4bWxuczpkYz0iaHR0cDovL3B1cmwub3JnL2RjL2VsZW1lbnRzLzEuMS8iIHhtbG5zOmlua3NjYXBlPSJodHRwOi8vd3d3Lmlua3NjYXBlLm9yZy9uYW1lc3BhY2VzL2lua3NjYXBlIiB4bWxuczpyZGY9Imh0dHA6Ly93d3cudzMub3JnLzE5OTkvMDIvMjItcmRmLXN5bnRheC1ucyMiIHhtbG5zOnNvZGlwb2RpPSJodHRwOi8vc29kaXBvZGkuc291cmNlZm9yZ2UubmV0L0RURC9zb2RpcG9kaS0wLmR0ZCIgeG1sbnM6c3ZnPSJodHRwOi8vd3d3LnczLm9yZy8yMDAwL3N2ZyIgeG1sbnM9Imh0dHA6Ly93d3cudzMub3JnLzIwMDAvc3ZnIiB4bWxuczp4bGluaz0iaHR0cDovL3d3dy53My5vcmcvMTk5OS94bGluayIgdmVyc2lvbj0iMS4xIiBpZD0ic3ZnMTUzNDg0IiBpbmtzY2FwZTp2ZXJzaW9uPSIwLjkyLjMgKDI0MDU1NDYsIDIwMTgtMDMtMTEpIiBzb2RpcG9kaTpkb2NuYW1lPSJleHByZXNzX3JvdXRlLnN2ZyIgeD0iMHB4IiB5PSIwcHgiIHZpZXdCb3g9IjAgMCA0MS4xNCAyNS4xNCIgc3R5bGU9ImVuYWJsZS1iYWNrZ3JvdW5kOm5ldyAwIDAgNDEuMTQgMjUuMTQ7IiB4bWw6c3BhY2U9InByZXNlcnZlIj4mI3hhOzxzb2RpcG9kaTpuYW1lZHZpZXcgYm9yZGVyY29sb3I9IiM2NjY2NjYiIGJvcmRlcm9wYWNpdHk9IjEiIGZpdC1tYXJnaW4tYm90dG9tPSIwIiBmaXQtbWFyZ2luLWxlZnQ9IjAiIGZpdC1tYXJnaW4tcmlnaHQ9IjAiIGZpdC1tYXJnaW4tdG9wPSIwIiBncmlkdG9sZXJhbmNlPSIxMCIgZ3VpZGV0b2xlcmFuY2U9IjEwIiBpZD0ibmFtZWR2aWV3MTUzNDg2IiBpbmtzY2FwZTpjdXJyZW50LWxheWVyPSJzdmcxNTM0ODQiIGlua3NjYXBlOmN4PSIyNy40MjI4NzEiIGlua3NjYXBlOmN5PSIxNi43NjMwMjgiIGlua3NjYXBlOnBhZ2VvcGFjaXR5PSIwIiBpbmtzY2FwZTpwYWdlc2hhZG93PSIyIiBpbmtzY2FwZTp3aW5kb3ctaGVpZ2h0PSIxMDE3IiBpbmtzY2FwZTp3aW5kb3ctbWF4aW1pemVkPSIxIiBpbmtzY2FwZTp3aW5kb3ctd2lkdGg9IjE5MjAiIGlua3NjYXBlOndpbmRvdy14PSItOCIgaW5rc2NhcGU6d2luZG93LXk9Ii04IiBpbmtzY2FwZTp6b29tPSIyNS44Njk5NDciIG9iamVjdHRvbGVyYW5jZT0iMTAiIHBhZ2Vjb2xvcj0iI2ZmZmZmZiIgc2hvd2dyaWQ9ImZhbHNlIj4mI3hhOwk8L3NvZGlwb2RpOm5hbWVkdmlldz4mI3hhOzxnIGlkPSJnMTUzNDgyIiB0cmFuc2Zvcm09InRyYW5zbGF0ZSgtNC4yODYyMDEzZS01LDAuMDAxMykiPiYjeGE7CTx0aXRsZSBpZD0idGl0bGUxNTM0NDIiPlBhZ2UtMTwvdGl0bGU+JiN4YTsJPGcgaWQ9Imdyb3VwOTQ3OC0xIj4mI3hhOwkJPHRpdGxlIGlkPSJ0aXRsZTE1MzQ0NCI+RXhwcmVzcyBSb3V0ZTwvdGl0bGU+JiN4YTsJCTxnIGlkPSJzaGFwZTk0NzktMiI+JiN4YTsJCQk8dGl0bGUgaWQ9InRpdGxlMTUzNDQ2Ij5TaGVldC45NDc5PC90aXRsZT4mI3hhOwkJCTxwYXRoIGlkPSJwYXRoMTUzNDQ4IiBpbmtzY2FwZTpjb25uZWN0b3ItY3VydmF0dXJlPSIwIiBzdHlsZT0iZmlsbDojNjgyMTdBOyIgZD0iTTM2LjQ5LDE1Ljg5Yy0wLjY1LDAtMS4zMSwwLjE2LTEuOSwwLjQ2ICAgICBsLTkuOC05LjgxYzAuMjYtMC41NSwwLjQtMS4yLDAuNC0xLjkxYzAtMi41Ni0yLjA3LTQuNjMtNC42LTQuNjNjLTIuNTcsMC00LjY0LDIuMDctNC42NCw0LjYzYzAsMC43MSwwLjIxLDEuMzYsMC40NiwxLjkxICAgICBMNi41NiwxNi40Yy0wLjU5LTAuMzEtMS4yNi0wLjQ2LTEuOTYtMC40NkMyLjA3LDE1Ljk0LDAsMTgsMCwyMC41MmMwLDIuNTYsMi4wNyw0LjYyLDQuNiw0LjYyYzIuMDIsMCwzLjY4LTEuMjUsNC4zNC0zLjAxSDMyLjIgICAgIGMwLjY3LDEuNzEsMi4zMywyLjk2LDQuMjksMi45NmMyLjU5LDAsNC42NC0yLjA1LDQuNjQtNC42M0M0MS4xMywxNy45NiwzOS4wOCwxNS44OSwzNi40OSwxNS44OXogTTQuNiwyMi4wMiAgICAgYy0wLjgxLDAtMS41MS0wLjY1LTEuNTEtMS41YzAtMC44LDAuNy0xLjUxLDEuNTEtMS41MWMwLjg1LDAsMS41MiwwLjcxLDEuNTIsMS41MUM2LjEyLDIxLjM3LDUuNDUsMjIuMDIsNC42LDIyLjAyeiBNMjAuNTksMy4xMyAgICAgYzAuODIsMCwxLjUyLDAuNjUsMS41MiwxLjVjMCwwLjgtMC43LDEuNS0xLjUyLDEuNWMtMC44NSwwLTEuNTEtMC43LTEuNTEtMS41QzE5LjA4LDMuNzgsMTkuNzQsMy4xMywyMC41OSwzLjEzeiBNMzIuMTYsMTguOTYgICAgIEg4Ljk0Yy0wLjA1LTAuMTEtMC4xLTAuMjYtMC4xNi0wLjM1bDkuOTEtOS44MWMwLjU1LDAuMjYsMS4yLDAuNDEsMS45LDAuNDFjMC43MiwwLDEuMzItMC4xNSwxLjkzLTAuNDFsOS44Myw5Ljc1ICAgICBDMzIuMjYsMTguNywzMi4yLDE4LjgxLDMyLjE2LDE4Ljk2eiBNMzYuNDksMjEuOThjLTAuOCwwLTEuNDYtMC42Ni0xLjQ2LTEuNTJjMC0wLjgsMC42Ni0xLjQ1LDEuNDYtMS40NSAgICAgYzAuODcsMCwxLjUyLDAuNjUsMS41MiwxLjQ1QzM4LjAxLDIxLjMyLDM3LjM2LDIxLjk4LDM2LjQ5LDIxLjk4eiIvPiYjeGE7CQk8L2c+JiN4YTsJCTxnIGlkPSJzaGFwZTk0ODAtNCIgdHJhbnNmb3JtPSJ0cmFuc2xhdGUoMTUuODA0MywtMTUuNjAxMykiPiYjeGE7CQkJPHRpdGxlIGlkPSJ0aXRsZTE1MzQ1MSI+U2hlZXQuOTQ4MDwvdGl0bGU+JiN4YTsJCQk8cGF0aCBpZD0icGF0aDE1MzQ1MyIgaW5rc2NhcGU6Y29ubmVjdG9yLWN1cnZhdHVyZT0iMCIgc3R5bGU9ImZpbGw6IzdGQkEwMDsiIGQ9Ik0wLDIwLjM3YzAtMi42MywyLjE0LTQuNzcsNC43Ni00Ljc3ICAgICBjMi42NCwwLDQuNzcsMi4xNCw0Ljc3LDQuNzdjMCwyLjY0LTIuMTMsNC43Ny00Ljc3LDQuNzdDMi4xNCwyNS4xNCwwLDIzLjAxLDAsMjAuMzd6Ii8+JiN4YTsJCTwvZz4mI3hhOwkJPGcgaWQ9InNoYXBlOTQ4MS02Ij4mI3hhOwkJCTx0aXRsZSBpZD0idGl0bGUxNTM0NTYiPlNoZWV0Ljk0ODE8L3RpdGxlPiYjeGE7CQkJPHBhdGggaWQ9InBhdGgxNTM0NTgiIGlua3NjYXBlOmNvbm5lY3Rvci1jdXJ2YXR1cmU9IjAiIHN0eWxlPSJmaWxsOiM3RkJBMDA7IiBkPSJNMCwyMC40OGMwLTIuNTgsMi4xNC00LjY2LDQuNzYtNC42NiAgICAgYzIuNjQsMCw0Ljc3LDIuMDgsNC43Nyw0LjY2YzAsMi41Ny0yLjEzLDQuNjYtNC43Nyw0LjY2QzIuMTQsMjUuMTQsMCwyMy4wNSwwLDIwLjQ4eiIvPiYjeGE7CQk8L2c+JiN4YTsJCTxnIGlkPSJzaGFwZTk0ODItOCIgdHJhbnNmb3JtPSJ0cmFuc2xhdGUoMzEuNjA4NikiPiYjeGE7CQkJPHRpdGxlIGlkPSJ0aXRsZTE1MzQ2MSI+U2hlZXQuOTQ4MjwvdGl0bGU+JiN4YTsJCQk8cGF0aCBpZD0icGF0aDE1MzQ2MyIgaW5rc2NhcGU6Y29ubmVjdG9yLWN1cnZhdHVyZT0iMCIgc3R5bGU9ImZpbGw6IzdGQkEwMDsiIGQ9Ik0wLDIwLjQ4YzAtMi41OCwyLjE0LTQuNjYsNC43Ni00LjY2ICAgICBjMi42NCwwLDQuNzcsMi4wOCw0Ljc3LDQuNjZjMCwyLjU3LTIuMTMsNC42Ni00Ljc3LDQuNjZDMi4xNCwyNS4xNCwwLDIzLjA1LDAsMjAuNDh6Ii8+JiN4YTsJCTwvZz4mI3hhOwkJPGcgaWQ9InNoYXBlOTQ4My0xMCIgdHJhbnNmb3JtPSJ0cmFuc2xhdGUoMTguNzI3LC0xOC41MjY1KSI+JiN4YTsJCQk8dGl0bGUgaWQ9InRpdGxlMTUzNDY2Ij5TaGVldC45NDgzPC90aXRsZT4mI3hhOwkJCTxwYXRoIGlkPSJwYXRoMTUzNDY4IiBpbmtzY2FwZTpjb25uZWN0b3ItY3VydmF0dXJlPSIwIiBzdHlsZT0iZmlsbDojRkZGRkZGOyIgZD0iTTAsMjMuMjljMC0xLjAxLDAuODMtMS44NCwxLjg0LTEuODQgICAgIGMxLjAzLDAsMS44NCwwLjgzLDEuODQsMS44NGMwLDEuMDMtMC44MSwxLjg1LTEuODQsMS44NUMwLjgzLDI1LjE0LDAsMjQuMzIsMCwyMy4yOXoiLz4mI3hhOwkJPC9nPiYjeGE7CQk8ZyBpZD0ic2hhcGU5NDg0LTEyIiB0cmFuc2Zvcm09InRyYW5zbGF0ZSgyLjgxNDQ2LC0yLjgxNjg5KSI+JiN4YTsJCQk8dGl0bGUgaWQ9InRpdGxlMTUzNDcxIj5TaGVldC45NDg0PC90aXRsZT4mI3hhOwkJCTxwYXRoIGlkPSJwYXRoMTUzNDczIiBpbmtzY2FwZTpjb25uZWN0b3ItY3VydmF0dXJlPSIwIiBzdHlsZT0iZmlsbDojRkZGRkZGOyIgZD0iTTAsMjMuMjljMC0xLjAxLDAuODMtMS44NCwxLjg0LTEuODQgICAgIGMxLjAzLDAsMS44NCwwLjgzLDEuODQsMS44NGMwLDEuMDMtMC44MSwxLjg1LTEuODQsMS44NUMwLjgzLDI1LjE0LDAsMjQuMzIsMCwyMy4yOXoiLz4mI3hhOwkJPC9nPiYjeGE7CQk8ZyBpZD0ic2hhcGU5NDg1LTE0IiB0cmFuc2Zvcm09InRyYW5zbGF0ZSgzNC41MzEzLC0yLjgxNjg5KSI+JiN4YTsJCQk8dGl0bGUgaWQ9InRpdGxlMTUzNDc2Ij5TaGVldC45NDg1PC90aXRsZT4mI3hhOwkJCTxwYXRoIGlkPSJwYXRoMTUzNDc4IiBpbmtzY2FwZTpjb25uZWN0b3ItY3VydmF0dXJlPSIwIiBzdHlsZT0iZmlsbDojRkZGRkZGOyIgZD0iTTAsMjMuMjljMC0xLjAxLDAuODMtMS44NCwxLjg0LTEuODQgICAgIGMxLjAzLDAsMS44NCwwLjgzLDEuODQsMS44NGMwLDEuMDMtMC44MSwxLjg1LTEuODQsMS44NUMwLjgzLDI1LjE0LDAsMjQuMzIsMCwyMy4yOXoiLz4mI3hhOwkJPC9nPiYjeGE7CTwvZz4mI3hhOzwvZz4mI3hhOzwvc3ZnPg==;" parent="1" vertex="1">
          <mxGeometry x="-380" y="384" width="57.4" height="35" as="geometry" />
        </mxCell>
        <mxCell id="KcTwcLUW4ho0NEUBTKKM-116" value="" style="image;sketch=0;aspect=fixed;html=1;points=[];align=center;fontSize=12;image=img/lib/mscae/VPN_Gateway.svg;" parent="1" vertex="1">
          <mxGeometry x="-290" y="375" width="45" height="50" as="geometry" />
        </mxCell>
        <mxCell id="KcTwcLUW4ho0NEUBTKKM-117" value="" style="image;aspect=fixed;html=1;points=[];align=center;fontSize=12;image=img/lib/azure2/compute/Virtual_Machine.svg;" parent="1" vertex="1">
          <mxGeometry x="-380" y="310" width="60" height="55.65" as="geometry" />
        </mxCell>
        <mxCell id="KcTwcLUW4ho0NEUBTKKM-118" value="" style="image;aspect=fixed;html=1;points=[];align=center;fontSize=12;image=img/lib/azure2/compute/Virtual_Machine.svg;" parent="1" vertex="1">
          <mxGeometry x="-299" y="310" width="59" height="54.72" as="geometry" />
        </mxCell>
        <mxCell id="KcTwcLUW4ho0NEUBTKKM-119" value="" style="endArrow=classic;html=1;rounded=0;dashed=1;strokeColor=#4D4D4D;" parent="1" edge="1">
          <mxGeometry width="50" height="50" relative="1" as="geometry">
            <mxPoint x="-220" y="310" as="sourcePoint" />
            <mxPoint x="-100" y="310" as="targetPoint" />
          </mxGeometry>
        </mxCell>
        <mxCell id="KcTwcLUW4ho0NEUBTKKM-120" value="" style="endArrow=classic;html=1;rounded=0;dashed=1;strokeColor=#4D4D4D;" parent="1" edge="1">
          <mxGeometry width="50" height="50" relative="1" as="geometry">
            <mxPoint x="-220" y="410" as="sourcePoint" />
            <mxPoint x="-100" y="410" as="targetPoint" />
          </mxGeometry>
        </mxCell>
        <mxCell id="KcTwcLUW4ho0NEUBTKKM-123" value="" style="endArrow=none;dashed=1;html=1;rounded=0;strokeColor=#1A1A1A;" parent="1" edge="1">
          <mxGeometry width="50" height="50" relative="1" as="geometry">
            <mxPoint x="34.5" y="205.35000000000002" as="sourcePoint" />
            <mxPoint x="34.5" y="125" as="targetPoint" />
          </mxGeometry>
        </mxCell>
        <mxCell id="KcTwcLUW4ho0NEUBTKKM-124" value="" style="endArrow=none;dashed=1;html=1;rounded=0;strokeColor=#1A1A1A;" parent="1" edge="1">
          <mxGeometry width="50" height="50" relative="1" as="geometry">
            <mxPoint x="114.5" y="205.35000000000002" as="sourcePoint" />
            <mxPoint x="114.5" y="125.35000000000002" as="targetPoint" />
          </mxGeometry>
        </mxCell>
        <mxCell id="KcTwcLUW4ho0NEUBTKKM-125" value="" style="endArrow=none;dashed=1;html=1;rounded=0;strokeColor=#1A1A1A;" parent="1" edge="1">
          <mxGeometry width="50" height="50" relative="1" as="geometry">
            <mxPoint x="114.5" y="210" as="sourcePoint" />
            <mxPoint x="34.5" y="210" as="targetPoint" />
          </mxGeometry>
        </mxCell>
        <mxCell id="KcTwcLUW4ho0NEUBTKKM-126" value="Application Gateway" style="text;strokeColor=none;align=center;fillColor=none;html=1;verticalAlign=middle;whiteSpace=wrap;rounded=0;fontSize=9;" parent="1" vertex="1">
          <mxGeometry x="30" y="120" width="90" height="30" as="geometry" />
        </mxCell>
        <mxCell id="KcTwcLUW4ho0NEUBTKKM-127" value="" style="endArrow=none;dashed=1;html=1;rounded=0;strokeColor=#1A1A1A;" parent="1" edge="1">
          <mxGeometry width="50" height="50" relative="1" as="geometry">
            <mxPoint x="115" y="120" as="sourcePoint" />
            <mxPoint x="35" y="120" as="targetPoint" />
          </mxGeometry>
        </mxCell>
        <mxCell id="KcTwcLUW4ho0NEUBTKKM-128" value="" style="image;sketch=0;aspect=fixed;html=1;points=[];align=center;fontSize=12;image=img/lib/mscae/Application_Gateway.svg;" parent="1" vertex="1">
          <mxGeometry x="51" y="152" width="50" height="50" as="geometry" />
        </mxCell>
        <mxCell id="KcTwcLUW4ho0NEUBTKKM-129" value="" style="image;aspect=fixed;html=1;points=[];align=center;fontSize=12;image=img/lib/azure2/management_governance/My_Customers.svg;" parent="1" vertex="1">
          <mxGeometry x="301" y="104.12" width="59" height="47.88" as="geometry" />
        </mxCell>
        <mxCell id="KcTwcLUW4ho0NEUBTKKM-134" value="&lt;b&gt;&lt;font style=&quot;font-size: 12px;&quot;&gt;Spoke Virtual Network&lt;/font&gt;&lt;/b&gt;" style="text;strokeColor=none;align=center;fillColor=none;html=1;verticalAlign=middle;whiteSpace=wrap;rounded=0;fontSize=9;" parent="1" vertex="1">
          <mxGeometry x="261.8" y="270" width="157.4" height="30" as="geometry" />
        </mxCell>
        <mxCell id="KcTwcLUW4ho0NEUBTKKM-135" value="" style="endArrow=classic;html=1;rounded=0;dashed=1;strokeColor=#4D4D4D;" parent="1" target="KcTwcLUW4ho0NEUBTKKM-126" edge="1">
          <mxGeometry width="50" height="50" relative="1" as="geometry">
            <mxPoint x="300" y="135" as="sourcePoint" />
            <mxPoint x="286.00000000000006" y="160.01999999999998" as="targetPoint" />
          </mxGeometry>
        </mxCell>
        <mxCell id="KcTwcLUW4ho0NEUBTKKM-138" value="" style="endArrow=none;dashed=1;html=1;rounded=0;strokeColor=#1A1A1A;" parent="1" edge="1">
          <mxGeometry width="50" height="50" relative="1" as="geometry">
            <mxPoint x="111.71000000000001" y="240" as="sourcePoint" />
            <mxPoint x="31.71" y="240" as="targetPoint" />
          </mxGeometry>
        </mxCell>
        <mxCell id="KcTwcLUW4ho0NEUBTKKM-139" value="" style="endArrow=none;dashed=1;html=1;rounded=0;strokeColor=#1A1A1A;" parent="1" edge="1">
          <mxGeometry width="50" height="50" relative="1" as="geometry">
            <mxPoint x="110" y="330.75" as="sourcePoint" />
            <mxPoint x="30" y="330.75" as="targetPoint" />
          </mxGeometry>
        </mxCell>
        <mxCell id="KcTwcLUW4ho0NEUBTKKM-142" value="" style="endArrow=classic;html=1;rounded=0;dashed=1;strokeColor=#4D4D4D;" parent="1" edge="1">
          <mxGeometry width="50" height="50" relative="1" as="geometry">
            <mxPoint x="74.5" y="204.86" as="sourcePoint" />
            <mxPoint x="75" y="240" as="targetPoint" />
          </mxGeometry>
        </mxCell>
        <mxCell id="KcTwcLUW4ho0NEUBTKKM-143" value="" style="points=[];aspect=fixed;html=1;align=center;shadow=0;dashed=0;fillColor=#FF6A00;strokeColor=none;shape=mxgraph.alibaba_cloud.uis_ultimate_internet_service;" parent="1" vertex="1">
          <mxGeometry x="222.46" y="113.41" width="43.9" height="43.18" as="geometry" />
        </mxCell>
        <mxCell id="KcTwcLUW4ho0NEUBTKKM-144" value="Customers" style="text;strokeColor=none;align=center;fillColor=none;html=1;verticalAlign=middle;whiteSpace=wrap;rounded=0;fontSize=9;" parent="1" vertex="1">
          <mxGeometry x="285.5" y="70" width="90" height="30" as="geometry" />
        </mxCell>
        <mxCell id="KcTwcLUW4ho0NEUBTKKM-145" value="Browser" style="text;strokeColor=none;align=center;fillColor=none;html=1;verticalAlign=middle;whiteSpace=wrap;rounded=0;fontSize=9;" parent="1" vertex="1">
          <mxGeometry x="199.41" y="162.43" width="90" height="30" as="geometry" />
        </mxCell>
        <mxCell id="KcTwcLUW4ho0NEUBTKKM-149" value="" style="image;aspect=fixed;html=1;points=[];align=center;fontSize=12;image=img/lib/azure2/app_services/CDN_Profiles.svg;" parent="1" vertex="1">
          <mxGeometry x="410" y="520.6999999999999" width="68" height="40" as="geometry" />
        </mxCell>
        <mxCell id="KcTwcLUW4ho0NEUBTKKM-155" value="" style="image;aspect=fixed;html=1;points=[];align=center;fontSize=12;image=img/lib/azure2/app_services/App_Services.svg;" parent="1" vertex="1">
          <mxGeometry x="390" y="371" width="46" height="46" as="geometry" />
        </mxCell>
        <mxCell id="KcTwcLUW4ho0NEUBTKKM-157" value="Web Application" style="text;strokeColor=none;align=center;fillColor=none;html=1;verticalAlign=middle;whiteSpace=wrap;rounded=0;fontSize=9;" parent="1" vertex="1">
          <mxGeometry x="380" y="422.35" width="70" height="25.3" as="geometry" />
        </mxCell>
        <mxCell id="KcTwcLUW4ho0NEUBTKKM-160" value="" style="endArrow=classic;html=1;rounded=0;dashed=1;strokeColor=#4D4D4D;" parent="1" edge="1">
          <mxGeometry width="50" height="50" relative="1" as="geometry">
            <mxPoint x="480" y="540" as="sourcePoint" />
            <mxPoint x="250" y="120" as="targetPoint" />
            <Array as="points">
              <mxPoint x="600" y="540" />
              <mxPoint x="600" y="290" />
              <mxPoint x="600" y="30" />
              <mxPoint x="390" y="30" />
              <mxPoint x="250" y="30" />
            </Array>
          </mxGeometry>
        </mxCell>
        <mxCell id="KcTwcLUW4ho0NEUBTKKM-161" value="" style="image;aspect=fixed;html=1;points=[];align=center;fontSize=12;image=img/lib/azure2/networking/Subnet.svg;" parent="1" vertex="1">
          <mxGeometry x="224.32" y="341" width="25.68" height="15.38" as="geometry" />
        </mxCell>
        <mxCell id="KcTwcLUW4ho0NEUBTKKM-163" value="" style="image;aspect=fixed;html=1;points=[];align=center;fontSize=12;image=img/lib/azure2/networking/Private_Link.svg;" parent="1" vertex="1">
          <mxGeometry x="433.15" y="482" width="30.55" height="28" as="geometry" />
        </mxCell>
        <mxCell id="KcTwcLUW4ho0NEUBTKKM-164" value="Azure CDN" style="text;strokeColor=none;align=center;fillColor=none;html=1;verticalAlign=middle;whiteSpace=wrap;rounded=0;fontSize=9;" parent="1" vertex="1">
          <mxGeometry x="410" y="570" width="90" height="30" as="geometry" />
        </mxCell>
        <mxCell id="KcTwcLUW4ho0NEUBTKKM-165" value="Azure Storage" style="text;strokeColor=none;align=center;fillColor=none;html=1;verticalAlign=middle;whiteSpace=wrap;rounded=0;fontSize=9;" parent="1" vertex="1">
          <mxGeometry x="206.82" y="567.26" width="90" height="30" as="geometry" />
        </mxCell>
        <mxCell id="KcTwcLUW4ho0NEUBTKKM-166" value="Azure Function" style="text;strokeColor=none;align=center;fillColor=none;html=1;verticalAlign=middle;whiteSpace=wrap;rounded=0;fontSize=9;" parent="1" vertex="1">
          <mxGeometry x="295.5" y="567.26" width="90" height="30" as="geometry" />
        </mxCell>
        <mxCell id="7-SXiQLHqa5V7BHbI3zt-1" value="" style="image;aspect=fixed;html=1;points=[];align=center;fontSize=12;image=img/lib/azure2/security/Key_Vaults.svg;" parent="1" vertex="1">
          <mxGeometry x="463.7" y="369" width="50" height="50" as="geometry" />
        </mxCell>
        <mxCell id="7-SXiQLHqa5V7BHbI3zt-2" value="Azure KeyVault" style="text;strokeColor=none;align=center;fillColor=none;html=1;verticalAlign=middle;whiteSpace=wrap;rounded=0;fontSize=9;" parent="1" vertex="1">
          <mxGeometry x="463.7" y="423.70000000000005" width="70" height="25.3" as="geometry" />
        </mxCell>
        <mxCell id="7-SXiQLHqa5V7BHbI3zt-6" value="" style="endArrow=none;dashed=1;html=1;rounded=0;exitX=-0.072;exitY=0.007;exitDx=0;exitDy=0;exitPerimeter=0;" parent="1" edge="1" source="7-SXiQLHqa5V7BHbI3zt-8">
          <mxGeometry width="50" height="50" relative="1" as="geometry">
            <mxPoint x="-440" as="sourcePoint" />
            <mxPoint x="-160" as="targetPoint" />
            <Array as="points">
              <mxPoint x="120" />
              <mxPoint x="680" />
              <mxPoint x="680" y="720" />
              <mxPoint x="-160" y="730" />
              <mxPoint x="-160" y="380" />
            </Array>
          </mxGeometry>
        </mxCell>
        <mxCell id="7-SXiQLHqa5V7BHbI3zt-8" value="" style="image;aspect=fixed;html=1;points=[];align=center;fontSize=12;image=img/lib/azure2/general/Subscriptions.svg;" parent="1" vertex="1">
          <mxGeometry x="-160" width="27.89" height="45" as="geometry" />
        </mxCell>
        <mxCell id="7-SXiQLHqa5V7BHbI3zt-9" value="&lt;b&gt;&lt;font style=&quot;font-size: 18px;&quot;&gt;Azure Subscription&lt;/font&gt;&lt;/b&gt;" style="text;strokeColor=none;align=center;fillColor=none;html=1;verticalAlign=middle;whiteSpace=wrap;rounded=0;fontSize=9;" parent="1" vertex="1">
          <mxGeometry x="-120" y="7.5" width="204.5" height="30" as="geometry" />
        </mxCell>
        <mxCell id="tBHCcPbSKvtHEPM-eCh4-1" value="" style="endArrow=classic;startArrow=classic;html=1;rounded=0;fillColor=#4D4D4D;dashed=1;strokeColor=#4D4D4D;" edge="1" parent="1">
          <mxGeometry width="50" height="50" relative="1" as="geometry">
            <mxPoint x="156.82" y="30" as="sourcePoint" />
            <mxPoint x="240" y="110" as="targetPoint" />
            <Array as="points">
              <mxPoint x="240" y="30" />
            </Array>
          </mxGeometry>
        </mxCell>
        <mxCell id="tBHCcPbSKvtHEPM-eCh4-2" value="Microsoft Entra" style="text;strokeColor=none;align=center;fillColor=none;html=1;verticalAlign=middle;whiteSpace=wrap;rounded=0;fontSize=9;" vertex="1" parent="1">
          <mxGeometry x="100" y="49.25" width="90" height="30" as="geometry" />
        </mxCell>
        <mxCell id="tBHCcPbSKvtHEPM-eCh4-4" value="Azure Monitor" style="text;strokeColor=none;align=center;fillColor=none;html=1;verticalAlign=middle;whiteSpace=wrap;rounded=0;fontSize=9;" vertex="1" parent="1">
          <mxGeometry x="130" y="523.1400000000001" width="90" height="30" as="geometry" />
        </mxCell>
      </root>
    </mxGraphModel>
  </diagram>
</mxfile>
